<svg version="1.1" class="highcharts-root" style="font-family:&quot;Lucida Grande&quot;, &quot;Lucida Sans Unicode&quot;, Arial, Helvetica, sans-serif;font-size:12px;" xmlns="http://www.w3.org/2000/svg" width="239" height="50" viewBox="0 0 239 50"><desc>Created with Highcharts 9.3.3</desc><defs><clipPath id="highcharts-ewlumvp-1-"><rect x="0" y="0" width="239" height="50" fill="none"></rect></clipPath><clipPath id="highcharts-ewlumvp-41-"><rect x="0" y="0" width="239" height="50" fill="none"></rect></clipPath><clipPath id="highcharts-ewlumvp-42-"><rect x="0" y="0" width="239" height="50" fill="none"></rect></clipPath></defs><rect fill="transparent" class="highcharts-background" x="0" y="0" width="239" height="50" rx="0" ry="0"></rect><rect fill="none" class="highcharts-plot-background" x="0" y="0" width="239" height="50"></rect><g class="highcharts-grid highcharts-xaxis-grid" data-z-index="1"><path fill="none" stroke-dasharray="none" data-z-index="1" class="highcharts-grid-line" d="M 2.5 0 L 2.5 50" opacity="1"></path><path fill="none" stroke-dasharray="none" data-z-index="1" class="highcharts-grid-line" d="M 26.5 0 L 26.5 50" opacity="1"></path><path fill="none" stroke-dasharray="none" data-z-index="1" class="highcharts-grid-line" d="M 50.5 0 L 50.5 50" opacity="1"></path><path fill="none" stroke-dasharray="none" data-z-index="1" class="highcharts-grid-line" d="M 74.5 0 L 74.5 50" opacity="1"></path><path fill="none" stroke-dasharray="none" data-z-index="1" class="highcharts-grid-line" d="M 98.5 0 L 98.5 50" opacity="1"></path><path fill="none" stroke-dasharray="none" data-z-index="1" class="highcharts-grid-line" d="M 121.5 0 L 121.5 50" opacity="1"></path><path fill="none" stroke-dasharray="none" data-z-index="1" class="highcharts-grid-line" d="M 145.5 0 L 145.5 50" opacity="1"></path><path fill="none" stroke-dasharray="none" data-z-index="1" class="highcharts-grid-line" d="M 169.5 0 L 169.5 50" opacity="1"></path><path fill="none" stroke-dasharray="none" data-z-index="1" class="highcharts-grid-line" d="M 193.5 0 L 193.5 50" opacity="1"></path><path fill="none" stroke-dasharray="none" data-z-index="1" class="highcharts-grid-line" d="M 217.5 0 L 217.5 50" opacity="1"></path></g><g class="highcharts-grid highcharts-yaxis-grid" data-z-index="1"><path fill="none" stroke-dasharray="none" data-z-index="1" class="highcharts-grid-line" d="M 0 50.5 L 239 50.5" opacity="1"></path><path fill="none" stroke-dasharray="none" data-z-index="1" class="highcharts-grid-line" d="M 0 0.5 L 239 0.5" opacity="1"></path></g><rect fill="none" class="highcharts-plot-border" data-z-index="1" x="0" y="0" width="239" height="50"></rect><g class="highcharts-axis highcharts-xaxis" data-z-index="2"><path fill="none" class="highcharts-axis-line" data-z-index="7" d="M 0 50 L 239 50"></path></g><g class="highcharts-axis highcharts-yaxis" data-z-index="2"><path fill="none" class="highcharts-axis-line" data-z-index="7" d="M 0 0 L 0 50"></path></g><g class="highcharts-series-group" data-z-index="3"><g class="highcharts-series highcharts-series-0 highcharts-column-series highcharts-tracker" data-z-index="0.1" opacity="1" transform="translate(0,0) scale(1 1)" clip-path="url(#highcharts-ewlumvp-41-)"><path fill="#203F5E" d="M 3 47 L 3 47 C 4 47 5 48 5 49 L 5 49 C 5 50 4 51 3 51 L 3 51 C 2 51 1 50 1 49 L 1 49 C 1 48 2 47 3 47 Z" opacity="1" class="highcharts-point"></path><path fill="#203F5E" d="M 9 47 L 9 47 C 10 47 11 48 11 49 L 11 49 C 11 50 10 51 9 51 L 9 51 C 8 51 7 50 7 49 L 7 49 C 7 48 8 47 9 47 Z" opacity="1" class="highcharts-point"></path><path fill="#203F5E" d="M 15 47 L 15 47 C 16 47 17 48 17 49 L 17 49 C 17 50 16 51 15 51 L 15 51 C 14 51 13 50 13 49 L 13 49 C 13 48 14 47 15 47 Z" opacity="1" class="highcharts-point"></path><path fill="#203F5E" d="M 21 47 L 21 47 C 22 47 23 48 23 49 L 23 49 C 23 50 22 51 21 51 L 21 51 C 20 51 19 50 19 49 L 19 49 C 19 48 20 47 21 47 Z" opacity="1" class="highcharts-point"></path><path fill="#203F5E" d="M 27 47 L 27 47 C 28 47 29 48 29 49 L 29 49 C 29 50 28 51 27 51 L 27 51 C 26 51 25 50 25 49 L 25 49 C 25 48 26 47 27 47 Z" opacity="1" class="highcharts-point"></path><path fill="#203F5E" d="M 33 47 L 33 47 C 34 47 35 48 35 49 L 35 49 C 35 50 34 51 33 51 L 33 51 C 32 51 31 50 31 49 L 31 49 C 31 48 32 47 33 47 Z" opacity="1" class="highcharts-point"></path><path fill="#203F5E" d="M 39 47 L 39 47 C 40 47 41 48 41 49 L 41 49 C 41 50 40 51 39 51 L 39 51 C 38 51 37 50 37 49 L 37 49 C 37 48 38 47 39 47 Z" opacity="1" class="highcharts-point"></path><path fill="#0A84FF" d="M 45 44 L 45 44 C 46 44 47 45 47 46 L 47 49 C 47 50 46 51 45 51 L 45 51 C 44 51 43 50 43 49 L 43 46 C 43 45 44 44 45 44 Z" opacity="1" class="highcharts-point highcharts-point-select"></path><path fill="#203F5E" d="M 51 40 L 51 40 C 52 40 53 41 53 42 L 53 49 C 53 50 52 51 51 51 L 51 51 C 50 51 49 50 49 49 L 49 42 C 49 41 50 40 51 40 Z" opacity="1" class="highcharts-point"></path><path fill="#203F5E" d="M 57 33 L 57 33 C 58 33 59 34 59 35 L 59 49 C 59 50 58 51 57 51 L 57 51 C 56 51 55 50 55 49 L 55 35 C 55 34 56 33 57 33 Z" opacity="1" class="highcharts-point"></path><path fill="#203F5E" d="M 63 32 L 63 32 C 64 32 65 33 65 34 L 65 49 C 65 50 64 51 63 51 L 63 51 C 62 51 61 50 61 49 L 61 34 C 61 33 62 32 63 32 Z" opacity="1" class="highcharts-point"></path><path fill="#203F5E" d="M 69 5 L 69 5 C 70 5 71 6 71 7 L 71 49 C 71 50 70 51 69 51 L 69 51 C 68 51 67 50 67 49 L 67 7 C 67 6 68 5 69 5 Z" opacity="1" class="highcharts-point"></path><path fill="#203F5E" d="M 75 28 L 75 28 C 76 28 77 29 77 30 L 77 49 C 77 50 76 51 75 51 L 75 51 C 74 51 73 50 73 49 L 73 30 C 73 29 74 28 75 28 Z" opacity="1" class="highcharts-point"></path><path fill="#203F5E" d="M 81 13 L 81 13 C 82 13 83 14 83 15 L 83 49 C 83 50 82 51 81 51 L 81 51 C 80 51 79 50 79 49 L 79 15 C 79 14 80 13 81 13 Z" opacity="1" class="highcharts-point"></path><path fill="#203F5E" d="M 87 32 L 87 32 C 88 32 89 33 89 34 L 89 49 C 89 50 88 51 87 51 L 87 51 C 86 51 85 50 85 49 L 85 34 C 85 33 86 32 87 32 Z" opacity="1" class="highcharts-point"></path><path fill="#203F5E" d="M 93 37 L 93 37 C 94 37 95 38 95 39 L 95 49 C 95 50 94 51 93 51 L 93 51 C 92 51 91 50 91 49 L 91 39 C 91 38 92 37 93 37 Z" opacity="1" class="highcharts-point"></path><path fill="#203F5E" d="M 98.5 41 L 98.5 41 C 99.75 41 101 42.25 101 43.5 L 101 48.5 C 101 49.75 99.75 51 98.5 51 L 98.5 51 C 97.25 51 96 49.75 96 48.5 L 96 43.5 C 96 42.25 97.25 41 98.5 41 Z" opacity="1" class="highcharts-point"></path><path fill="#203F5E" d="M 104.5 43 L 104.5 43 C 105.75 43 107 44.25 107 45.5 L 107 48.5 C 107 49.75 105.75 51 104.5 51 L 104.5 51 C 103.25 51 102 49.75 102 48.5 L 102 45.5 C 102 44.25 103.25 43 104.5 43 Z" opacity="1" class="highcharts-point"></path><path fill="#203F5E" d="M 110 47 L 111 47 C 112 47 113 48 113 49 L 113 49 C 113 50 112 51 111 51 L 110 51 C 109 51 108 50 108 49 L 108 49 C 108 48 109 47 110 47 Z" opacity="1" class="highcharts-point"></path><path fill="#203F5E" d="M 116 47 L 117 47 C 118 47 119 48 119 49 L 119 49 C 119 50 118 51 117 51 L 116 51 C 115 51 114 50 114 49 L 114 49 C 114 48 115 47 116 47 Z" opacity="1" class="highcharts-point"></path><path fill="#203F5E" d="M 122 47 L 123 47 C 124 47 125 48 125 49 L 125 49 C 125 50 124 51 123 51 L 122 51 C 121 51 120 50 120 49 L 120 49 C 120 48 121 47 122 47 Z" opacity="1" class="highcharts-point"></path><path fill="#203F5E" d="M 128 47 L 129 47 C 130 47 131 48 131 49 L 131 49 C 131 50 130 51 129 51 L 128 51 C 127 51 126 50 126 49 L 126 49 C 126 48 127 47 128 47 Z" opacity="1" class="highcharts-point"></path><path fill="#203F5E" d="M 134 47 L 135 47 C 136 47 137 48 137 49 L 137 49 C 137 50 136 51 135 51 L 134 51 C 133 51 132 50 132 49 L 132 49 C 132 48 133 47 134 47 Z" opacity="1" class="highcharts-point"></path><path fill="#203F5E" d="M 140 47 L 141 47 C 142 47 143 48 143 49 L 143 49 C 143 50 142 51 141 51 L 140 51 C 139 51 138 50 138 49 L 138 49 C 138 48 139 47 140 47 Z" opacity="1" class="highcharts-point"></path><path fill="#203F5E" d="M 146 47 L 146 47 C 147 47 148 48 148 49 L 148 49 C 148 50 147 51 146 51 L 146 51 C 145 51 144 50 144 49 L 144 49 C 144 48 145 47 146 47 Z" opacity="1" class="highcharts-point"></path><path fill="#203F5E" d="M 152 47 L 152 47 C 153 47 154 48 154 49 L 154 49 C 154 50 153 51 152 51 L 152 51 C 151 51 150 50 150 49 L 150 49 C 150 48 151 47 152 47 Z" opacity="1" class="highcharts-point"></path><path fill="#203F5E" d="M 158 47 L 158 47 C 159 47 160 48 160 49 L 160 49 C 160 50 159 51 158 51 L 158 51 C 157 51 156 50 156 49 L 156 49 C 156 48 157 47 158 47 Z" opacity="1" class="highcharts-point"></path><path fill="#203F5E" d="M 164 47 L 164 47 C 165 47 166 48 166 49 L 166 49 C 166 50 165 51 164 51 L 164 51 C 163 51 162 50 162 49 L 162 49 C 162 48 163 47 164 47 Z" opacity="1" class="highcharts-point"></path><path fill="#203F5E" d="M 170 47 L 170 47 C 171 47 172 48 172 49 L 172 49 C 172 50 171 51 170 51 L 170 51 C 169 51 168 50 168 49 L 168 49 C 168 48 169 47 170 47 Z" opacity="1" class="highcharts-point"></path><path fill="#203F5E" d="M 176 47 L 176 47 C 177 47 178 48 178 49 L 178 49 C 178 50 177 51 176 51 L 176 51 C 175 51 174 50 174 49 L 174 49 C 174 48 175 47 176 47 Z" opacity="1" class="highcharts-point"></path><path fill="#203F5E" d="M 182 47 L 182 47 C 183 47 184 48 184 49 L 184 49 C 184 50 183 51 182 51 L 182 51 C 181 51 180 50 180 49 L 180 49 C 180 48 181 47 182 47 Z" opacity="1" class="highcharts-point"></path><path fill="#203F5E" d="M 188 47 L 188 47 C 189 47 190 48 190 49 L 190 49 C 190 50 189 51 188 51 L 188 51 C 187 51 186 50 186 49 L 186 49 C 186 48 187 47 188 47 Z" opacity="1" class="highcharts-point"></path><path fill="#203F5E" d="M 194 47 L 194 47 C 195 47 196 48 196 49 L 196 49 C 196 50 195 51 194 51 L 194 51 C 193 51 192 50 192 49 L 192 49 C 192 48 193 47 194 47 Z" opacity="1" class="highcharts-point"></path><path fill="#203F5E" d="M 200 47 L 200 47 C 201 47 202 48 202 49 L 202 49 C 202 50 201 51 200 51 L 200 51 C 199 51 198 50 198 49 L 198 49 C 198 48 199 47 200 47 Z" opacity="1" class="highcharts-point"></path><path fill="#203F5E" d="M 206 47 L 206 47 C 207 47 208 48 208 49 L 208 49 C 208 50 207 51 206 51 L 206 51 C 205 51 204 50 204 49 L 204 49 C 204 48 205 47 206 47 Z" opacity="1" class="highcharts-point"></path><path fill="#203F5E" d="M 212 47 L 212 47 C 213 47 214 48 214 49 L 214 49 C 214 50 213 51 212 51 L 212 51 C 211 51 210 50 210 49 L 210 49 C 210 48 211 47 212 47 Z" opacity="1" class="highcharts-point"></path><path fill="#203F5E" d="M 218 47 L 218 47 C 219 47 220 48 220 49 L 220 49 C 220 50 219 51 218 51 L 218 51 C 217 51 216 50 216 49 L 216 49 C 216 48 217 47 218 47 Z" opacity="1" class="highcharts-point"></path><path fill="#203F5E" d="M 224 47 L 224 47 C 225 47 226 48 226 49 L 226 49 C 226 50 225 51 224 51 L 224 51 C 223 51 222 50 222 49 L 222 49 C 222 48 223 47 224 47 Z" opacity="1" class="highcharts-point"></path><path fill="#203F5E" d="M 230 47 L 230 47 C 231 47 232 48 232 49 L 232 49 C 232 50 231 51 230 51 L 230 51 C 229 51 228 50 228 49 L 228 49 C 228 48 229 47 230 47 Z" opacity="1" class="highcharts-point"></path><path fill="#203F5E" d="M 236 47 L 236 47 C 237 47 238 48 238 49 L 238 49 C 238 50 237 51 236 51 L 236 51 C 235 51 234 50 234 49 L 234 49 C 234 48 235 47 236 47 Z" opacity="1" class="highcharts-point"></path></g><g class="highcharts-markers highcharts-series-0 highcharts-column-series" data-z-index="0.1" opacity="1" transform="translate(0,0) scale(1 1)" clip-path="none"></g></g><text x="120" text-anchor="middle" class="highcharts-title" data-z-index="4" style="color:#333333;font-size:18px;fill:#333333;" y="24"></text><text x="120" text-anchor="middle" class="highcharts-subtitle" data-z-index="4" style="color:#666666;fill:#666666;" y="24"></text><text x="10" text-anchor="start" class="highcharts-caption" data-z-index="4" style="color:#666666;fill:#666666;" y="47"></text><g class="highcharts-axis-labels highcharts-xaxis-labels" data-z-index="7"></g><g class="highcharts-axis-labels highcharts-yaxis-labels" data-z-index="7"></g><g class="highcharts-control-points" data-z-index="99" clip-path="url(#highcharts-ewlumvp-42-)"></g></svg>